<?xml version="1.0" encoding="UTF-8"?>
<svg xmlns="http://www.w3.org/2000/svg" width="1200" height="1200" viewBox="0 0 1200 1200" fill="none">
  <g clip-path="url(#clip0_147_911)">
    <rect width="1200" height="1200" fill="white"></rect>
    <path d="M912.24 524.401H804.96L901.08 422.281L621.96 123.721H68.5197V630.841C61.3197 634.081 54.5997 638.761 48.2397 644.881C35.2797 658.321 28.6797 674.521 28.6797 693.001C28.6797 711.481 35.2797 728.281 48.4797 741.361C61.9197 754.801 78.1197 761.521 96.8397 761.521C115.56 761.521 131.88 754.681 145.2 741.361C151.56 735.001 156.48 727.801 159.72 719.881H465.96L392.04 798.961L567.6 986.281L636.72 1060.08L648.6 1072.8H1167.72V524.401H912.24ZM601.44 170.881L836.28 422.161L787.08 474.481L665.16 378.361L532.68 491.521L281.88 294.241L115.92 436.081V171.001H601.56L601.44 170.881ZM127.2 695.521C126.6 703.081 123.84 709.201 118.56 714.481C112.32 720.721 105.48 723.601 96.9597 723.601C88.4397 723.601 81.5997 720.721 75.3597 714.481C69.4797 708.601 66.7197 701.761 66.7197 692.881C66.7197 684.001 69.4797 677.281 75.1197 671.521C80.6397 666.241 86.5197 663.481 94.0797 662.761C95.0397 662.761 95.9997 662.641 96.9597 662.641C105.6 662.641 112.56 665.401 118.32 671.041C124.32 677.281 127.2 684.241 127.2 692.881V695.521ZM510.36 672.481H162.12C159 662.161 153.36 652.681 145.08 644.161C136.44 635.761 126.72 630.121 115.8 627.121V498.121L282.96 355.201L533.76 552.481L666.24 439.441L754.44 508.921L740.04 524.281H648.6L510.24 672.361L510.36 672.481ZM936.36 918.961H720.12V877.321H936.36V918.961ZM1027.2 817.801H720.12V776.161H1027.2V817.801ZM1027.2 716.041H720.12V674.401H1027.2V716.041Z" fill="url(#paint0_linear_147_911)"></path>
    <path d="M519.96 406.08C546.72 406.08 569.52 396.48 587.64 378C606.84 359.28 616.56 336.36 616.56 309.96C616.56 283.56 606.96 260.16 587.88 241.2C569.52 222.84 546.6 213.48 520.08 213.48C493.56 213.48 470.64 222.72 451.56 241.44C432.96 260.4 423.48 283.56 423.48 310.08C423.48 336.6 432.96 359.16 451.68 377.88C470.4 396.6 493.44 406.08 519.96 406.08ZM484.92 274.92C494.76 265.32 505.92 260.88 519.96 260.88C534 260.88 544.8 265.32 554.28 274.8C564.36 284.88 569.16 296.16 569.16 310.08C569.16 324 564.48 334.44 554.16 344.64C544.68 354.36 533.88 358.8 519.96 358.8C506.04 358.8 494.88 354.24 485.16 344.4C475.32 334.56 470.76 323.64 470.76 310.08C470.76 296.52 475.44 284.76 484.92 274.92Z" fill="#06E5B3"></path>
  </g>
  <defs>
    <linearGradient id="paint0_linear_147_911" x1="63.5992" y1="123.601" x2="1116" y2="1072.8" gradientUnits="userSpaceOnUse">
      <stop stop-color="#01F2AC"></stop>
      <stop offset="1" stop-color="#10C6C0"></stop>
    </linearGradient>
    <clipPath id="clip0_147_911">
      <rect width="1200" height="1200" fill="white"></rect>
    </clipPath>
  </defs>
</svg>
